<svg aria-hidden="true" style="position:absolute;width:0;height:0;overflow:hidden" xmlns="http://www.w3.org/2000/svg">
  <defs>
    <symbol id="icon-16" viewBox="0 0 48 32">
      <path fill="#d41443" style="fill:var(--color1, #d41443)" d="M17.241 30.076c0 .308-.855.561-2.566.757-1.71.168-3.421.252-5.131.252s-2.818-.07-3.322-.21c-.477-.168-.715-.435-.715-.799V11.907h-4.29c-.477 0-.715-1.023-.715-3.07s.238-3.897.715-5.552c.14-.533 1.626-1.023 4.458-1.472s5.005-.673 6.519-.673c1.514 0 2.523.056 3.028.168s.883.252 1.136.421c.252.14.449.308.589.505.196.308.294.603.294.883v26.959zm16.365-17.369c.252-.224.925-.519 2.019-.883s2.327-.547 3.701-.547c1.402 0 2.579.21 3.533.631.981.393 1.738.897 2.271 1.514.561.617.995 1.388 1.304 2.313.505 1.514.757 3.056.757 4.626s-.07 2.762-.21 3.575c-.112.785-.421 1.668-.925 2.65a7.128 7.128 0 0 1-1.977 2.481c-.813.673-1.991 1.248-3.533 1.724-1.514.449-3.295.673-5.341.673-4.402 0-7.725-1.206-9.968-3.617-2.243-2.439-3.365-6.365-3.365-11.776 0-5.439 1.051-9.351 3.154-11.734C27.129 1.926 30.325.72 34.615.72c2.944 0 5.495.224 7.654.673 2.187.421 3.28.925 3.28 1.514 0 .729-.28 2.005-.841 3.827-.533 1.822-1.023 2.734-1.472 2.734-.14 0-.561-.07-1.262-.21-1.907-.393-3.645-.589-5.215-.589s-2.58.393-3.028 1.178c-.449.757-.673 1.879-.673 3.365.112-.14.294-.308.547-.505zm.926 3.785c-.813 0-1.22 1.514-1.22 4.542 0 3 .407 4.5 1.22 4.5.869 0 1.304-1.5 1.304-4.5 0-3.028-.435-4.542-1.304-4.542z"/>
    </symbol>
    <symbol id="icon-23" viewBox="0 0 51 32">
      <path fill="#d41443" style="fill:var(--color1, #d41443)" d="M3.133 12.118c-.785 0-1.472-.925-2.061-2.776C.511 7.491.231 5.711.231 4.001c0-.393.435-.827 1.304-1.304.869-.505 2.187-.953 3.953-1.346S9.175.762 11.25.762c8.047 0 12.07 2.818 12.07 8.454 0 1.57-.336 3.042-1.009 4.416s-1.416 2.481-2.229 3.322a16.972 16.972 0 0 1-2.86 2.271c-1.262.785-2.467 1.402-3.617 1.851h8.411c.168 0 .35.084.547.252.196.14.407.589.631 1.346.224.729.336 1.654.336 2.776 0 1.093-.07 2.019-.21 2.776-.14.729-.308 1.262-.505 1.598-.421.757-.799 1.164-1.136 1.22l-.21.042H3.048c-1.766 0-2.65-2.762-2.65-8.285 0-.617 1.822-2.313 5.467-5.089 1.374-1.009 2.636-2.117 3.785-3.322s1.724-2.187 1.724-2.944c0-.841-.631-1.262-1.893-1.262s-2.594.322-3.995.967c-1.374.645-2.159.967-2.355.967zm47.325-3.491c0 2.832-1.122 4.949-3.365 6.351.308.14.701.477 1.178 1.009.505.533.925 1.065 1.262 1.598.869 1.374 1.304 3 1.304 4.879 0 3.084-1.108 5.355-3.322 6.813s-5.257 2.187-9.126 2.187c-1.907 0-3.715-.154-5.425-.463-1.682-.336-2.972-.701-3.869-1.093-.897-.421-1.346-.799-1.346-1.136 0-1.542.168-2.902.505-4.08s.715-2.005 1.136-2.481c.421-.505.827-.757 1.22-.757.112 0 .855.252 2.229.757s2.72.757 4.038.757c1.346 0 2.019-.421 2.019-1.262 0-1.15-1.416-1.766-4.248-1.851-1.122-.028-1.738-.056-1.85-.084-.589-.196-.883-1.43-.883-3.701s.294-3.519.883-3.743c.112-.056.729-.084 1.85-.084 2.832-.056 4.248-.631 4.248-1.724 0-.841-.617-1.262-1.85-1.262-1.206 0-2.551.294-4.038.883s-2.299.883-2.439.883c-.645 0-1.234-.939-1.766-2.818s-.799-3.21-.799-3.995c0-.729.813-1.472 2.439-2.229 1.794-.813 4.43-1.22 7.907-1.22 8.075 0 12.112 2.622 12.112 7.865z"/>
    </symbol>
    <symbol id="icon-Ellipse-2" viewBox="0 0 32 32">
      <path fill="#fff" style="fill:var(--color2, #fff)" d="M32 16c0 8.837-7.163 16-16 16S0 24.837 0 16 7.163 0 16 0s16 7.163 16 16z"/>
    </symbol>
    <symbol id="icon-Ellipse-3" viewBox="0 0 32 32">
      <path fill="#ffa5ba" style="fill:var(--color3, #ffa5ba)" d="M32 16c0 8.837-7.163 16-16 16S0 24.837 0 16 7.163 0 16 0s16 7.163 16 16z"/>
    </symbol>
    <symbol id="icon-Vector-1" viewBox="0 0 72 32">
      <path fill="#d41443" style="fill:var(--color1, #d41443)" d="M15.29 9.963c-7.245 3.204-13.282 7.208-13.282 9.611 0 4.405 21.734 12.414 34.211 12.414S70.43 23.979 70.43 19.574c0-4.806-24.954-15.618-35.016-15.618-4.025.4-13.282 2.803-20.124 6.007z"/>
    </symbol>
    <symbol id="icon-Vector-2" viewBox="0 0 128 32">
      <path fill="#d41443" style="fill:var(--color1, #d41443)" d="M5.797 3.722c-1.61 2.136-3.22 9.077-3.22 16.018 0 12.281.537 12.281 61.714 12.281s61.715 0 61.715-12.281c0-18.154-4.83-20.29-22.003-11.747-19.319 10.145-60.104 10.145-79.424 0C15.993 3.721 7.943 2.12 5.796 3.721z"/>
    </symbol>
    <symbol id="icon-Vector-3" viewBox="0 0 84 32">
      <path fill="#d41443" style="fill:var(--color1, #d41443)" d="M3.4 1.769c-4.683 4.951 3.22 6.99 26.052 6.99H54.04v10.193c0 5.534 1.464 10.193 2.927 10.193 1.756 0 2.927-4.369 2.927-9.902 0-9.611.586-10.193 11.709-11.067 6.44-.582 11.709-2.33 11.709-3.786 0-3.204-76.692-5.825-79.912-2.621z"/>
    </symbol>
    <symbol id="icon-Vector-4" viewBox="0 0 70 32">
      <path fill="#d41443" style="fill:var(--color1, #d41443)" d="M1.406 9.943c0 16.018 5.562 19.222 33.662 19.222s33.663-3.204 33.663-19.222c0-6.99-1.464-9.902-4.391-9.902-2.634 0-4.391 2.621-4.391 6.99 0 16.31-22.247 17.766-25.466 1.747C33.019.332 32.141.041 17.213.041H1.406v9.902z"/>
    </symbol>
    <symbol id="icon-Vector-5" viewBox="0 0 96 32">
      <path fill="#d41443" style="fill:var(--color1, #d41443)" d="M5.776 13.85c4.83 25.629 86.938 23.227 86.938-1.602 0-8.81-10.465-12.014-45.079-12.014C9.801.234 3.361 2.637 5.776 13.85z"/>
    </symbol>
    <symbol id="icon-Vector-6" viewBox="0 0 13 32">
      <path fill="#d41443" style="fill:var(--color1, #d41443)" d="M4.45 1.173C1.908 1.847 1.4 4.039 1.4 16.18v14.164h12.032l-.508-14.669C12.416.331 11.738-.849 4.451 1.174z"/>
    </symbol>
    <symbol id="icon-Vector-7" viewBox="0 0 28 32">
      <path fill="#d41443" style="fill:var(--color1, #d41443)" d="M9.627 2.129c-5.903 3.204-8.05 7.119-8.05 14.772 0 10.501 5.724 15.484 16.278 14.772 7.155-.534 7.871-1.068 8.407-5.517s.179-4.806-5.367-4.45c-5.724.534-5.903.178-5.903-5.695s.358-6.229 5.545-5.695c4.293.356 5.903-.356 6.619-3.026.358-1.78 0-4.272-1.073-5.339-2.504-2.492-11.806-2.492-16.457.178z"/>
    </symbol>
    <symbol id="icon-Vector-8" viewBox="0 0 24 32">
      <path fill="#d41443" style="fill:var(--color1, #d41443)" d="M.655 3.869C.147 5.218-.023 11.794.316 18.707l.508 12.477h11.015c10.168 0 11.015-.337 11.524-3.878.508-3.204-.169-3.709-5.423-3.709-3.389 0-6.101-.843-6.101-1.686 0-1.012 2.373-1.686 5.084-1.686 3.898 0 5.084-.674 5.084-3.372s-1.186-3.372-5.084-3.372c-2.712 0-5.084-.843-5.084-1.686 0-1.012 2.203-1.686 4.915-1.686 4.745 0 7.965-3.71 5.931-6.913C21.16.667 1.671 1.341.654 3.87z"/>
    </symbol>
    <symbol id="icon-Vector-9" viewBox="0 0 28 32">
      <path fill="#d41443" style="fill:var(--color1, #d41443)" d="M9.981 1.773C4.078 4.087 1.752 8.18 1.573 15.656 1.394 28.471 6.582 32.92 19.998 31.674c5.188-.356 6.082-1.246 6.082-4.983 0-3.916-.715-4.45-5.724-3.916-4.293.356-5.903-.178-6.797-3.026-1.61-5.517 1.789-9.967 7.513-9.967 3.399 0 5.188-1.068 5.545-3.382C27.869.705 18.746-1.965 9.981 1.772z"/>
    </symbol>
    <symbol id="icon-Vector-10" viewBox="0 0 29 32">
      <path fill="#d41443" style="fill:var(--color1, #d41443)" d="M1.668 1.005C.821 1.679.312 8.593.312 16.349v14.164l5.423-.506c4.237-.337 5.762-1.518 6.609-4.721l1.017-4.215 1.356 4.553c1.017 3.878 2.203 4.721 6.609 4.721 7.287 0 8.135-1.18 5.084-7.082-1.864-3.71-2.203-5.564-.847-6.913 2.203-2.192 2.373-9.611.339-12.815C24.207.837 3.871-1.355 1.668 1.006zm13.897 9.105c0 1.855-.678 3.372-1.695 3.372-.847 0-1.695-1.518-1.695-3.372s.847-3.372 1.695-3.372c1.017 0 1.695 1.518 1.695 3.372z"/>
    </symbol>
    <symbol id="icon-Vector-11" viewBox="0 0 24 32">
      <path fill="#d41443" style="fill:var(--color1, #d41443)" d="M1.688 1.173C1.01 1.679.502 8.592.502 16.348v13.995h11.015c10.677 0 11.015-.169 11.015-4.215 0-3.541-.847-4.215-5.084-4.215-2.712 0-5.084-.843-5.084-1.686 0-1.012 1.864-1.686 4.237-1.686 3.05 0 4.237-.843 4.237-3.372s-1.186-3.372-4.237-3.372c-2.373 0-4.237-.843-4.237-1.686 0-1.012 2.373-1.686 5.084-1.686 4.237 0 5.084-.674 5.084-4.215 0-4.047-.508-4.215-9.829-4.215-5.423 0-10.507.506-11.015 1.18z"/>
    </symbol>
    <symbol id="icon-Vector-12" viewBox="0 0 32 32">
      <path fill="#d41443" style="fill:var(--color1, #d41443)" d="M11.249 1.061c-3.22.89-11.448 24.561-9.839 28.477 1.431 3.56 9.481 3.204 11.627-.534 1.61-3.026 1.789-3.026 5.009 0 4.114 3.56 13.058 4.094 13.058.712 0-1.068-1.789-8.187-4.114-15.484C23.412 2.485 22.339.883 18.583.527c-2.504 0-5.724.178-7.334.534zm5.009 16.196c-.537 1.78-.894.712-.894-2.136 0-3.026.358-4.272.894-3.204.358 1.246.358 3.738 0 5.339z"/>
    </symbol>
    <symbol id="icon-Vector-13" viewBox="0 0 34 32">
      <path fill="#d41443" style="fill:var(--color1, #d41443)" d="M3.06 1.173C1.535 1.679.857 6.4.857 16.18v14.164h4.915c4.237 0 5.084-.843 5.762-4.721.678-4.384.678-4.384 2.034-.843.678 2.192 2.373 3.878 3.559 3.878 1.356 0 3.22-1.686 4.067-3.878 1.356-3.541 1.525-3.541 1.525 1.012.169 4.215.678 4.721 5.423 4.215l5.253-.506.17-13.995c.339-12.983.169-13.995-3.389-14.838-5.423-1.349-9.998 1.855-11.524 8.093l-1.186 5.564-1.864-5.902C13.229.498 9.671-1.525 3.061 1.173z"/>
    </symbol>
    <symbol id="icon-Vector" viewBox="0 0 33 32">
      <path fill="#d41443" style="fill:var(--color1, #d41443)" d="M12.343.585C4.629 2.921 0 8.995 0 16.67c0 6.274 3.22 11.747 8.519 14.483 2.75 1.402 3.153.4.604-1.535-1.811-1.468-2.147-2.136-2.147-4.605 0-1.735-.403-3.137-1.006-3.671-1.207-1.001-1.342-3.604-.134-4.539.47-.4.939-1.735 1.006-2.937.335-4.405 5.098-8.543 9.861-8.543s9.526 4.138 9.861 8.543c.067 1.201.537 2.536 1.006 2.937 1.207.934 1.073 3.537-.134 4.539-.604.534-1.006 1.936-1.006 3.671 0 2.47-.335 3.137-2.147 4.605-2.817 2.203-2.012 3.003 1.14 1.068 4.427-2.736 7.714-8.677 7.714-13.949 0-10.545-11.001-19.089-20.795-16.152z"/>
    </symbol>
  </defs>
</svg>
